<svg width="18" height="14" viewBox="0 0 18 14" fill="none" xmlns="http://www.w3.org/2000/svg">
<path fill-rule="evenodd" clip-rule="evenodd" d="M15.6677 1.23292C16.4021 1.43443 16.9804 2.02817 17.1767 2.78218C17.5333 4.14872 17.5333 7.00003 17.5333 7.00003C17.5333 7.00003 17.5333 9.85124 17.1767 11.2179C16.9804 11.9719 16.4021 12.5656 15.6677 12.7672C14.3369 13.1334 9.00001 13.1334 9.00001 13.1334C9.00001 13.1334 3.66309 13.1334 2.33218 12.7672C1.59783 12.5656 1.0195 11.9719 0.823232 11.2179C0.466675 9.85124 0.466675 7.00003 0.466675 7.00003C0.466675 7.00003 0.466675 4.14872 0.823232 2.78218C1.0195 2.02817 1.59783 1.43443 2.33218 1.23292C3.66309 0.866699 9.00001 0.866699 9.00001 0.866699C9.00001 0.866699 14.3369 0.866699 15.6677 1.23292ZM7.40002 4.59998V9.93331L11.6667 7.26674L7.40002 4.59998Z" fill="white"/>
</svg>
