<svg width="420" height="239" viewBox="0 0 420 239" fill="none" xmlns="http://www.w3.org/2000/svg">
<path d="M420 205.693V206.603C419.999 214.961 416.677 222.977 410.766 228.886C404.855 234.795 396.838 238.114 388.48 238.113H32.71C24.3533 238.112 16.3391 234.792 10.4301 228.883C4.52105 222.974 1.20104 214.96 1.20024 206.603V205.693H420Z" fill="#F2F2F2"/>
<path d="M75.6098 55.6929C49.8998 62.0429 26.8199 42.2629 22.79 23.9129L24.58 23.5929C46.25 18.8029 70.4399 34.2928 75.6098 55.6929Z" fill="#00009F"/>
<path d="M323.218 187.043C317.475 187.043 312.908 185.335 309.642 181.966C302.26 174.351 302.722 159.672 303.094 147.878C303.202 144.447 303.304 141.206 303.201 138.491L303.2 138.45C303.226 133.145 305.344 128.066 309.094 124.314C312.844 120.562 317.923 118.441 323.227 118.413H370.843C376.579 118.413 381.142 120.118 384.406 123.483C391.787 131.092 391.33 145.767 390.962 157.558C390.855 160.997 390.754 164.245 390.859 166.964C390.841 172.277 388.725 177.366 384.973 181.127C381.22 184.887 376.135 187.013 370.823 187.043H323.218ZM305.2 138.436C305.305 141.215 305.202 144.482 305.093 147.941C304.733 159.358 304.286 173.567 311.078 180.574C313.993 183.581 317.964 185.043 323.218 185.043H370.82C375.597 185.018 380.171 183.109 383.549 179.73C386.927 176.352 388.835 171.777 388.86 167C388.753 164.252 388.855 160.97 388.963 157.496C389.319 146.081 389.761 131.876 382.97 124.875C380.057 121.872 376.09 120.413 370.843 120.413H323.23C318.458 120.439 313.888 122.346 310.513 125.72C307.138 129.094 305.229 133.663 305.2 138.436V138.436Z" fill="#3F3D56"/>
<path d="M65.0901 57.5331C56.7408 57.4825 48.5733 55.0903 41.5161 50.6284C31.1774 44.204 23.371 33.915 21.1434 23.7778L20.9202 22.7617L23.7141 22.2617C45.7073 17.4077 70.5829 33.0497 75.912 55.0981L76.1456 56.0649L75.18 56.3036C71.8789 57.1206 68.4908 57.5335 65.0901 57.5331ZM23.3387 24.3608C25.7385 33.6601 33.0217 42.9951 42.5717 48.9297C51.8053 54.8389 62.9949 56.8733 73.7176 54.5923C68.142 34.0508 44.7951 19.6362 24.1264 24.2193L23.3387 24.3608Z" fill="#3F3D56"/>
<path d="M37.3477 171.175C30.805 171.175 25.4897 168.248 22.369 162.907C20.6199 159.8 19.7005 156.294 19.6994 152.729C19.6983 149.163 20.6155 145.657 22.3627 142.549C25.5332 137.117 30.9753 134.17 37.6964 134.273H101.14C107.839 134.187 113.285 137.121 116.457 142.56C118.204 145.667 119.122 149.172 119.122 152.737C119.122 156.302 118.203 159.807 116.455 162.915C113.284 168.34 107.839 171.238 101.125 171.173H37.6802C37.569 171.174 37.4581 171.175 37.3477 171.175ZM37.3848 136.27C31.55 136.27 26.8369 138.851 24.09 143.557C22.516 146.357 21.6897 149.516 21.6908 152.728C21.6918 155.94 22.5202 159.098 24.096 161.897C26.8892 166.679 31.6989 169.267 37.6652 169.173H101.14C107.113 169.268 111.937 166.681 114.729 161.905C116.303 159.106 117.13 155.948 117.131 152.736C117.131 149.525 116.304 146.367 114.73 143.567C111.937 138.779 107.111 136.201 101.154 136.273H37.6754C37.5785 136.271 37.4811 136.27 37.3847 136.27H37.3848Z" fill="#3F3D56"/>
<path d="M339.5 142.193H319.5C318.174 142.193 316.902 141.666 315.964 140.728C315.027 139.791 314.5 138.519 314.5 137.193C314.5 135.867 315.027 134.595 315.964 133.657C316.902 132.72 318.174 132.193 319.5 132.193H339.5C340.826 132.193 342.098 132.72 343.035 133.657C343.973 134.595 344.5 135.867 344.5 137.193C344.5 138.519 343.973 139.791 343.035 140.728C342.098 141.666 340.826 142.193 339.5 142.193Z" fill="#00009F"/>
<path d="M339.5 158.193H319.5C318.174 158.193 316.902 157.666 315.964 156.728C315.027 155.791 314.5 154.519 314.5 153.193C314.5 151.867 315.027 150.595 315.964 149.657C316.902 148.72 318.174 148.193 319.5 148.193H339.5C340.826 148.193 342.098 148.72 343.035 149.657C343.973 150.595 344.5 151.867 344.5 153.193C344.5 154.519 343.973 155.791 343.035 156.728C342.098 157.666 340.826 158.193 339.5 158.193Z" fill="#00009F"/>
<path d="M339.5 174.193H319.5C318.174 174.193 316.902 173.666 315.964 172.728C315.027 171.791 314.5 170.519 314.5 169.193C314.5 167.867 315.027 166.595 315.964 165.657C316.902 164.72 318.174 164.193 319.5 164.193H339.5C340.826 164.193 342.098 164.72 343.035 165.657C343.973 166.595 344.5 167.867 344.5 169.193C344.5 170.519 343.973 171.791 343.035 172.728C342.098 173.666 340.826 174.193 339.5 174.193Z" fill="#00009F"/>
<path d="M374.5 142.193H354.5C353.174 142.193 351.902 141.666 350.964 140.728C350.027 139.791 349.5 138.519 349.5 137.193C349.5 135.867 350.027 134.595 350.964 133.657C351.902 132.72 353.174 132.193 354.5 132.193H374.5C375.826 132.193 377.098 132.72 378.035 133.657C378.973 134.595 379.5 135.867 379.5 137.193C379.5 138.519 378.973 139.791 378.035 140.728C377.098 141.666 375.826 142.193 374.5 142.193Z" fill="#00009F"/>
<path d="M374.5 158.193H354.5C353.174 158.193 351.902 157.666 350.964 156.728C350.027 155.791 349.5 154.519 349.5 153.193C349.5 151.867 350.027 150.595 350.964 149.657C351.902 148.72 353.174 148.193 354.5 148.193H374.5C375.826 148.193 377.098 148.72 378.035 149.657C378.973 150.595 379.5 151.867 379.5 153.193C379.5 154.519 378.973 155.791 378.035 156.728C377.098 157.666 375.826 158.193 374.5 158.193Z" fill="#00009F"/>
<path d="M374.5 174.193H354.5C353.174 174.193 351.902 173.666 350.964 172.728C350.027 171.791 349.5 170.519 349.5 169.193C349.5 167.867 350.027 166.595 350.964 165.657C351.902 164.72 353.174 164.193 354.5 164.193H374.5C375.826 164.193 377.098 164.72 378.035 165.657C378.973 166.595 379.5 167.867 379.5 169.193C379.5 170.519 378.973 171.791 378.035 172.728C377.098 173.666 375.826 174.193 374.5 174.193Z" fill="#00009F"/>
<path d="M420 71.1338H1.2002V73.1338H420V71.1338Z" fill="#3F3D56"/>
<path d="M387 238.693H33C24.2509 238.683 15.863 235.203 9.67639 229.016C3.48983 222.83 0.00988299 214.442 0 205.693V33.6928C0.00988299 24.9437 3.48983 16.5558 9.67639 10.3692C15.863 4.18267 24.2509 0.702716 33 0.692833H387C395.749 0.702716 404.137 4.18267 410.324 10.3692C416.51 16.5558 419.99 24.9437 420 33.6928V205.693C419.99 214.442 416.51 222.83 410.324 229.016C404.137 235.203 395.749 238.683 387 238.693V238.693ZM33 2.69283C24.7812 2.70217 16.9016 5.97125 11.09 11.7829C5.27839 17.5945 2.00934 25.474 2 33.6928V205.693C2.00934 213.912 5.27841 221.791 11.09 227.603C16.9016 233.414 24.7812 236.683 33 236.693H387C395.219 236.684 403.098 233.414 408.91 227.603C414.722 221.791 417.991 213.912 418 205.693V33.6928C417.991 25.474 414.722 17.5944 408.91 11.7828C403.098 5.97122 395.219 2.70215 387 2.69283H33Z" fill="#3F3D56"/>
</svg>
