<svg width="64" height="64" viewBox="0 0 64 64" fill="none" xmlns="http://www.w3.org/2000/svg">
<path d="M4 4H60V60H4V4Z" fill="#F5DE19"/>
<path d="M41.618 47.75C42.0952 48.7192 42.8365 49.5339 43.7565 50.1C44.6765 50.6662 45.7378 50.9609 46.818 50.9501C48.998 50.9501 50.392 49.86 50.392 48.35C50.392 46.55 48.96 45.906 46.56 44.856L45.244 44.2921C41.444 42.6741 38.924 40.648 38.924 36.364C38.924 32.418 41.924 29.4121 46.63 29.4121C48.1534 29.302 49.6755 29.643 51.0064 30.3924C52.3373 31.1418 53.4181 32.2664 54.114 33.626L50 36.2561C49.7321 35.5819 49.2655 35.0051 48.6622 34.6022C48.0589 34.1993 47.3474 33.9893 46.622 34.0001C46.3055 33.9684 45.9859 34.003 45.6836 34.1016C45.3812 34.2003 45.1027 34.3608 44.8658 34.5731C44.6289 34.7853 44.4388 35.0446 44.3077 35.3343C44.1765 35.6241 44.1072 35.938 44.104 36.2561C44.104 37.8341 45.082 38.4741 47.34 39.4561L48.656 40.0201C53.128 41.9381 55.656 43.892 55.656 48.286C55.656 53.024 51.934 55.62 46.936 55.62C44.9886 55.7441 43.0469 55.302 41.3453 54.347C39.6436 53.392 38.2546 51.9649 37.346 50.238L41.618 47.75ZM23.028 48.2061C23.854 49.6721 24.606 50.912 26.414 50.912C28.142 50.912 29.234 50.236 29.234 47.606V29.7121H34.496V47.676C34.496 53.124 31.296 55.604 26.638 55.604C24.9915 55.694 23.3563 55.2837 21.9474 54.427C20.5385 53.5703 19.4217 52.3073 18.744 50.8041L23.028 48.2061Z" fill="black"/>
</svg>
