<svg width="64" height="64" viewBox="0 0 64 64" fill="none" xmlns="http://www.w3.org/2000/svg">
<g clip-path="url(#clip0_102_1538)">
<path d="M52.6208 20.7226C51.9396 20.4602 51.2528 20.2171 50.5607 19.9936C50.677 19.4603 50.784 18.9334 50.879 18.4158C52.4385 9.91586 51.419 3.06814 47.9367 0.813547C44.598 -1.34786 39.1377 0.905898 33.6232 6.29453C33.0798 6.82655 32.5484 7.37391 32.0295 7.93607C31.6822 7.56225 31.3287 7.19569 30.9692 6.83656C25.1898 1.07488 19.3967 -1.35347 15.9183 0.907582C12.5825 3.07572 11.5947 9.51306 12.9987 17.5686C13.1384 18.3665 13.2962 19.1602 13.4718 19.949C12.6518 20.2106 11.8605 20.4891 11.1032 20.7855C4.32725 23.4381 0 27.595 0 31.9069C0 36.3602 4.6455 40.827 11.703 43.5355C12.2752 43.7542 12.8521 43.9568 13.4333 44.1432C13.2445 44.9928 13.0769 45.8482 12.9307 46.7083C11.5922 54.6241 12.6375 60.9093 15.9642 63.0637C19.4002 65.2885 25.1672 63.0019 30.7825 57.4903C31.2378 57.0422 31.6831 56.5815 32.118 56.1084C32.6799 56.7171 33.2568 57.3082 33.848 57.8808C39.2875 63.1361 44.6595 65.2582 47.983 63.0979C51.4158 60.8666 52.5315 54.1146 51.083 45.8999C50.9689 45.2563 50.8409 44.6159 50.6992 43.9793C51.1042 43.8446 51.5018 43.7059 51.8893 43.5616C59.2262 40.8324 64 36.4197 64 31.9069C64 27.5793 59.533 23.3943 52.6208 20.7226ZM51.0295 40.6479C50.6795 40.7779 50.3205 40.9034 49.9545 41.0255C49.1445 38.1463 48.0515 35.085 46.7137 31.9218C47.9902 28.834 49.0412 25.8117 49.8285 22.9514C50.4832 23.1641 51.1185 23.3884 51.731 23.6251C57.6535 25.9145 61.266 29.2989 61.266 31.9069C61.266 34.6847 57.3645 38.2909 51.0295 40.6479ZM48.401 46.4961C49.0415 50.1284 49.1328 53.4126 48.7085 55.9801C48.3275 58.2872 47.561 59.8252 46.613 60.4413C44.5962 61.7522 40.283 60.0484 35.6312 55.5538C35.0813 55.0214 34.5447 54.4719 34.022 53.906C35.8255 51.6916 37.6278 49.1173 39.3867 46.258C42.4808 45.9498 45.4038 45.4457 48.0545 44.7577C48.1822 45.334 48.2977 45.9136 48.401 46.4961ZM21.819 60.2148C19.8485 60.996 18.279 61.0185 17.3302 60.4043C15.3115 59.0971 14.4722 54.0503 15.617 47.2809C15.7531 46.481 15.9089 45.6855 16.0842 44.8952C18.7057 45.5465 21.6075 46.0147 24.7087 46.2971C26.4797 49.0948 28.334 51.6663 30.2027 53.9181C29.8056 54.3496 29.3991 54.77 28.9835 55.179C26.5002 57.6161 24.012 59.3452 21.819 60.2148ZM12.5875 40.6308C9.46675 39.4331 6.8895 37.8766 5.123 36.178C3.5355 34.6519 2.73425 33.1364 2.73425 31.9069C2.73425 29.2902 6.2085 25.9526 12.0033 23.6843C12.7065 23.4092 13.4425 23.1495 14.2063 22.9059C15.0072 25.8308 16.0578 28.8891 17.3255 31.9815C16.0413 35.1198 14.9757 38.2269 14.167 41.1863C13.6365 41.0157 13.1099 40.8305 12.5875 40.6308ZM15.682 16.9789C14.4792 10.0773 15.278 4.87109 17.2882 3.56442C19.4293 2.1727 24.1637 4.15699 29.154 9.13214C29.4794 9.4573 29.7995 9.78905 30.1143 10.1272C28.2547 12.3692 26.4175 14.9216 24.6623 17.7028C21.6523 18.0161 18.771 18.5191 16.122 19.1931C15.9588 18.4594 15.8121 17.7212 15.682 16.9792V16.9789ZM43.2887 24.6331C42.6631 23.4196 42.0142 22.2213 41.3425 21.0392C43.3845 21.3292 45.341 21.714 47.1782 22.1845C46.6268 24.1696 45.9393 26.2448 45.13 28.3726C44.5385 27.1124 43.9246 25.8657 43.2887 24.6331ZM32.0308 12.3212C33.2918 13.8552 34.5548 15.5678 35.797 17.426C33.277 17.2924 30.7528 17.2918 28.2327 17.4244C29.4762 15.5832 30.75 13.8729 32.0308 12.3212ZM20.7005 24.6541C20.0726 25.8768 19.4702 27.1158 18.8937 28.37C18.0977 26.2499 17.4165 24.1651 16.8603 22.1519C18.6863 21.6933 20.6335 21.3182 22.6625 21.0336C21.9834 22.2229 21.3292 23.43 20.7005 24.6538V24.6541ZM22.7208 42.9985C20.6245 42.7358 18.648 42.3801 16.8225 41.9338C17.3875 39.8847 18.0837 37.7556 18.897 35.59C19.4757 36.8452 20.0806 38.0849 20.7113 39.3081C21.3598 40.5657 22.0312 41.7974 22.7208 42.9985ZM32.1063 51.7087C30.8103 50.139 29.5177 48.4023 28.2555 46.5345C29.481 46.5884 30.7302 46.6159 32 46.6159C33.3045 46.6159 34.594 46.5831 35.8633 46.5197C34.617 48.4211 33.3587 50.1604 32.1063 51.7087ZM45.1558 35.4794C46.0112 37.6688 46.7323 39.7867 47.3047 41.8008C45.4492 42.2763 43.4458 42.6592 41.3348 42.9435C42.0112 41.7395 42.6662 40.5204 43.2995 39.2871C43.9433 38.0335 44.5622 36.7639 45.1558 35.4794ZM40.9313 37.7533C39.9618 39.6442 38.9378 41.4993 37.861 43.3154C35.9104 43.4706 33.9555 43.5476 32 43.5465C30.0082 43.5465 28.071 43.4768 26.2055 43.341C25.1006 41.529 24.0571 39.6707 23.0772 37.7702H23.0775C22.1023 35.8797 21.1914 33.9483 20.3468 31.9801C21.1892 30.0116 22.0974 28.0792 23.0693 26.1873L23.069 26.1876C24.0405 24.2952 25.0757 22.4448 26.1723 20.6406C28.0755 20.4789 30.0273 20.3947 31.9998 20.3947H32C33.9815 20.3947 35.9358 20.4798 37.8385 20.6426C38.924 22.4441 39.9526 24.2881 40.9222 26.171C41.8974 28.0588 42.8175 29.9817 43.6813 31.9366C42.8264 33.9116 41.9091 35.8517 40.9313 37.7533ZM46.5713 3.47292C48.7143 4.8607 49.5477 10.4571 48.2012 17.796C48.1152 18.2642 48.0187 18.7411 47.9137 19.2248C45.2583 18.5365 42.375 18.0248 39.3563 17.7067C37.5978 14.895 35.7755 12.3386 33.9463 10.1255C34.4257 9.60667 34.9165 9.10125 35.4183 8.60976C40.1432 3.99306 44.5592 2.17018 46.5713 3.47292ZM32 25.49C35.1562 25.49 37.715 28.363 37.715 31.9069C37.715 35.4507 35.1562 38.3237 32 38.3237C28.8438 38.3237 26.285 35.4507 26.285 31.9069C26.285 28.363 28.8438 25.49 32 25.49Z" fill="#00D8FF"/>
</g>
<defs>
<clipPath id="clip0_102_1538">
<rect width="64" height="64" fill="white"/>
</clipPath>
</defs>
</svg>
